<svg width="32" height="28" viewBox="0 0 32 28" fill="none" xmlns="http://www.w3.org/2000/svg">
<path d="M30.3141 8.01104C29.6736 7.07603 28.9377 6.17905 28.159 5.39455C21.0191 -1.79819 9.44298 -1.79819 2.30307 5.39455C1.55522 6.14794 0.828751 7.04282 0.169717 7.99983C-0.129686 8.4346 -0.0225352 9.03157 0.409045 9.33318C0.840625 9.6348 1.4332 9.52686 1.73261 9.09208C2.33024 8.22425 2.98569 7.41684 3.6481 6.74953C10.0452 0.305129 20.4169 0.305129 26.8139 6.74953C27.5094 7.45015 28.172 8.2578 28.7486 9.0995C29.047 9.535 29.6393 9.64439 30.0716 9.34382C30.5039 9.04325 30.6125 8.44654 30.3141 8.01104ZM9.8064 13.9612C11.7918 11.9612 14.5946 11.2865 17.1314 11.9373C16.524 12.4346 15.973 12.9992 15.4897 13.6197C13.9282 13.5495 12.3438 14.1151 11.1514 15.3162C10.6517 15.8196 10.2469 16.4313 9.95105 17.1126C9.74049 17.5973 9.1797 17.8184 8.69848 17.6063C8.21726 17.3941 7.99785 16.8292 8.20842 16.3444C8.59671 15.4504 9.13374 14.6389 9.8064 13.9612ZM23.9064 9.17612C24.0414 9.31216 24.1737 9.45259 24.3032 9.59698C24.1117 9.58648 23.9189 9.58115 23.7249 9.58115C23.0407 9.58115 22.3719 9.64731 21.7243 9.77364C17.6535 6.47064 11.6807 6.72313 7.90069 10.5311C7.11439 11.3232 6.47535 12.2143 5.98343 13.194C5.74635 13.6662 5.17419 13.8553 4.70547 13.6165C4.23675 13.3777 4.04898 12.8013 4.28606 12.3291C4.86858 11.1689 5.62635 10.1123 6.55567 9.17612C11.3469 4.3494 19.1151 4.3494 23.9064 9.17612ZM19.0964 14.261C19.6733 16.3327 18.4445 18.4768 16.3751 19.0093L15.4981 19.235C15.4696 19.5262 15.455 19.8216 15.455 20.1206C15.455 20.4802 15.4761 20.8347 15.5171 21.1827L16.182 21.3411C18.3114 21.8482 19.5782 24.056 18.9517 26.1679L18.7114 26.9781C19.2006 27.3675 19.7327 27.7014 20.299 27.9705L20.9172 27.3111C22.4196 25.7086 24.9509 25.71 26.4516 27.3141L27.0933 28C27.6495 27.7414 28.1733 27.4208 28.6566 27.0465L28.3596 25.9798C27.7827 23.9081 29.0115 21.764 31.0809 21.2314L31.9569 21.006C31.9854 20.7149 32 20.4195 32 20.1206C32 19.7608 31.9789 19.4061 31.9378 19.0578L31.2739 18.8997C29.1446 18.3925 27.8778 16.1848 28.5042 14.0728L28.7443 13.2636C28.255 12.8741 27.7228 12.5401 27.1563 12.2709L26.5387 12.9296C25.0364 14.5321 22.5051 14.5308 21.0044 12.9267L20.3627 12.2408C19.8064 12.4992 19.2826 12.8198 18.7993 13.1941L19.0964 14.261ZM23.7275 22.0368C22.677 22.0368 21.8254 21.1789 21.8254 20.1206C21.8254 19.0623 22.677 18.2044 23.7275 18.2044C24.778 18.2044 25.6297 19.0623 25.6297 20.1206C25.6297 21.1789 24.778 22.0368 23.7275 22.0368Z" fill="white"/>
</svg>
