<svg width="32" height="20" viewBox="0 0 32 20" fill="none" xmlns="http://www.w3.org/2000/svg">
<path d="M5.12 5H24.32V15H5.12V5ZM29.44 6.25H30.72C31.4266 6.25 32 6.81 32 7.5V12.5C32 13.19 31.4266 13.75 30.72 13.75H29.44V15C29.44 17.7575 27.1437 20 24.32 20H5.12C2.29632 20 0 17.7575 0 15V5C0 2.2425 2.29632 0 5.12 0H24.32C27.1437 0 29.44 2.2425 29.44 5V6.25ZM24.32 17.5C25.7331 17.5 26.88 16.38 26.88 15V5C26.88 3.62 25.7331 2.5 24.32 2.5H5.12C3.70688 2.5 2.56 3.62 2.56 5V15C2.56 16.38 3.70688 17.5 5.12 17.5H24.32Z" fill="white"/>
</svg>
