<svg width="21" height="21" viewBox="0 0 21 21" fill="none" xmlns="http://www.w3.org/2000/svg">
<path d="M10 5.5C10 8.53757 12.4624 11 15.5 11C18.5376 11 21 8.53757 21 5.5C21 2.46243 18.5376 0 15.5 0C12.4624 0 10 2.46243 10 5.5ZM18.5 2C18.7761 2 19 2.22386 19 2.5V4.5C19 4.77614 18.7761 5 18.5 5H16.5C16.2239 5 16 4.77614 16 4.5C16 4.22386 16.2239 4 16.5 4H17.5003C17.0436 3.39204 16.3174 3 15.5 3C14.6666 3 13.9283 3.40734 13.4733 4.036C13.3113 4.25969 12.9987 4.30976 12.775 4.14785C12.5514 3.98593 12.5013 3.67333 12.6632 3.44964C13.2982 2.57236 14.3323 2 15.5 2C16.4798 2 17.3651 2.4027 18 3.05058V2.5C18 2.22386 18.2239 2 18.5 2ZM13 7.94938V8.5C13 8.77614 12.7761 9 12.5 9C12.2239 9 12 8.77614 12 8.5V6.5C12 6.22386 12.2239 6 12.5 6H14.5C14.7761 6 15 6.22386 15 6.5C15 6.77614 14.7761 7 14.5 7H13.4998C13.9564 7.60796 14.6827 8 15.5 8C16.2663 8 16.9518 7.65581 17.4112 7.11179C17.5893 6.9008 17.9048 6.87419 18.1158 7.05234C18.3268 7.2305 18.3534 7.54596 18.1752 7.75695C17.534 8.51637 16.5732 9 15.5 9C14.5203 9 13.6349 8.59728 13 7.94938ZM18.4988 14.7518V11.2684C19.0498 10.9814 19.5545 10.6177 19.9988 10.1915V14.7518C19.9988 15.9427 19.0737 16.9174 17.9029 16.9966L17.7488 17.0018L13.499 17.0015V19.4995L15.25 19.5C15.6642 19.5 16 19.8357 16 20.25C16 20.6296 15.7178 20.9434 15.3518 20.9931L15.25 21H4.75C4.33579 21 4 20.6642 4 20.25C4 19.8703 4.28215 19.5565 4.64823 19.5068L4.75 19.5L6.499 19.4995V17.0015L2.25 17.0018C1.05914 17.0018 0.0843551 16.0766 0.00519085 14.9058L0 14.7518V4.24951C0 3.05865 0.925161 2.08387 2.09595 2.0047L2.25 1.99951H10.0221C9.72551 2.46272 9.48604 2.96603 9.31366 3.49951H2.25C1.8703 3.49951 1.55651 3.78167 1.50685 4.14774L1.5 4.24951V14.7518C1.5 15.1315 1.78215 15.4453 2.14823 15.4949L2.25 15.5018H17.7488C18.1285 15.5018 18.4423 15.2196 18.492 14.8536L18.4988 14.7518ZM11.998 17.0015H7.998L7.999 19.5H11.999L11.998 17.0015Z" fill="white"/>
</svg>
