<svg width="32" height="24" viewBox="0 0 32 24" fill="none" xmlns="http://www.w3.org/2000/svg">
<path d="M1.88235 3.69231C1.88235 1.6531 3.56787 0 5.64706 0H24.4706C26.5498 0 28.2353 1.6531 28.2353 3.69231V7.21366C27.9078 6.96604 27.5805 6.67203 27.2523 6.32734C26.9957 6.05781 26.6881 5.85255 26.3529 5.71905V3.69231C26.3529 2.67271 25.5102 1.84615 24.4706 1.84615H5.64706C4.60746 1.84615 3.76471 2.67271 3.76471 3.69231V12.9231C3.76471 13.9427 4.60746 14.7692 5.64706 14.7692H16.9449V15.0165L16.9525 15.4873L16.953 15.5024C16.9655 15.8797 16.9923 16.2509 17.0338 16.6154H5.64706C3.56787 16.6154 1.88235 14.9623 1.88235 12.9231V3.69231ZM18.0865 20.3077C17.7971 19.721 17.5648 19.1046 17.3872 18.4615H0.941176C0.421379 18.4615 0 18.8748 0 19.3846C0 19.8944 0.421379 20.3077 0.941176 20.3077H18.0865ZM25.4136 24C25.3439 23.9998 25.2742 23.9879 25.2071 23.9645C23.905 23.5084 22.7987 22.9043 21.8915 22.1559L21.889 22.1538C21.2348 21.6138 20.6842 20.9986 20.2384 20.3097L20.2371 20.3077C19.3675 18.9632 18.897 17.3381 18.8344 15.4426L18.8272 15.0017V10.8462C18.8272 10.4638 19.1222 10.1538 19.486 10.1538C21.501 10.1538 23.3127 9.30788 24.9507 7.58729C25.0786 7.45294 25.246 7.38539 25.4136 7.38462C25.5812 7.38539 25.7486 7.45294 25.8765 7.58729C27.5145 9.30788 29.3262 10.1538 31.3412 10.1538C31.705 10.1538 32 10.4638 32 10.8462V15.0017L31.9928 15.4426C31.9302 17.3381 31.4597 18.9632 30.5902 20.3077L30.5888 20.3097C30.143 20.9986 29.5924 21.6138 28.9382 22.1538L28.9357 22.1559C28.0285 22.9043 26.9222 23.5084 25.6201 23.9645C25.553 23.9879 25.4833 23.9998 25.4136 24Z" fill="white"/>
</svg>
