<svg width="24" height="24" viewBox="0 0 24 24" fill="none" xmlns="http://www.w3.org/2000/svg">
<path d="M4.54304 0C2.03399 0 0 2.06482 0 4.6119V16.9103C0 19.4574 2.03399 21.5222 4.54304 21.5222H9.99425C9.74901 21.0352 9.54892 20.5209 9.3996 19.9849H4.54304C2.87034 19.9849 1.51435 18.6084 1.51435 16.9103V6.1492H19.6865V9.54207C20.2145 9.69367 20.7211 9.89678 21.2008 10.1457V4.6119C21.2008 2.06482 19.1669 0 16.6578 0H4.54304ZM1.51435 4.6119C1.51435 2.91385 2.87034 1.5373 4.54304 1.5373H16.6578C18.3305 1.5373 19.6865 2.91385 19.6865 4.6119L1.51435 4.6119ZM13.7272 12.9778C14.1865 14.6399 13.2082 16.36 11.5607 16.7872L10.8625 16.9683C10.8398 17.2018 10.8282 17.4389 10.8282 17.6787C10.8282 17.9672 10.845 18.2516 10.8776 18.5308L11.407 18.6578C13.1022 19.0647 14.1107 20.8359 13.612 22.5302L13.4207 23.1802C13.8101 23.4926 14.2337 23.7604 14.6846 23.9764L15.1768 23.4474C16.3728 22.1617 18.3881 22.1628 19.5828 23.4497L20.0937 24C20.5365 23.7926 20.9535 23.5353 21.3382 23.235L21.1018 22.3793C20.6425 20.7172 21.6208 18.9971 23.2683 18.5699L23.9657 18.389C23.9884 18.1555 24 17.9186 24 17.6787C24 17.3901 23.9832 17.1055 23.9505 16.8261L23.422 16.6993C21.7268 16.2924 20.7182 14.5212 21.217 12.8269L21.408 12.1777C21.0185 11.8652 20.5948 11.5973 20.1439 11.3812L19.6522 11.9098C18.4561 13.1954 16.4409 13.1943 15.2462 11.9074L14.7353 11.3571C14.2924 11.5645 13.8754 11.8217 13.4906 12.1219L13.7272 12.9778ZM17.4141 19.216C16.5777 19.216 15.8997 18.5278 15.8997 17.6787C15.8997 16.8297 16.5777 16.1414 17.4141 16.1414C18.2504 16.1414 18.9284 16.8297 18.9284 17.6787C18.9284 18.5278 18.2504 19.216 17.4141 19.216Z" fill="white"/>
</svg>
