<svg width="24" height="24" viewBox="0 0 24 24" fill="none" xmlns="http://www.w3.org/2000/svg">
<path d="M14.3309 7.99503C15.2501 7.99503 15.9952 7.24994 15.9952 6.33083C15.9952 5.41171 15.2501 4.66662 14.3309 4.66662C13.4118 4.66662 12.6667 5.41171 12.6667 6.33083C12.6667 7.24994 13.4118 7.99503 14.3309 7.99503ZM4.33335 0C1.9401 0 0 1.94008 0 4.33329V16.3332C0 18.7264 1.9401 20.6665 4.33334 20.6665H16.3334C18.7266 20.6665 20.6667 18.7264 20.6667 16.3332V4.33329C20.6667 1.94008 18.7266 0 16.3334 0H4.33335ZM2.00001 4.33329C2.00001 3.04464 3.04468 1.99998 4.33335 1.99998H16.3334C17.622 1.99998 18.6667 3.04464 18.6667 4.33329V16.3332C18.6667 16.6414 18.607 16.9356 18.4984 17.205L12.3823 11.4836C11.229 10.4047 9.43671 10.4047 8.28338 11.4836L2.16803 17.2043C2.05966 16.9351 2.00001 16.6411 2.00001 16.3332V4.33329ZM11.016 12.9441L17.0226 18.563C16.8047 18.6303 16.5733 18.6665 16.3334 18.6665H4.33334C4.09315 18.6665 3.86143 18.6302 3.64338 18.5628L9.64969 12.9441C10.0341 12.5845 10.6316 12.5845 11.016 12.9441ZM7.66662 24C6.13237 24 4.78436 23.2027 4.01433 21.9998H7.63261L7.66662 22H17C19.7614 22 22 19.7615 22 17.0001V4.01473C23.2028 4.78477 24 6.1327 24 7.66682V17.0001C24 20.866 20.866 24 17 24H7.66662Z" fill="white"/>
</svg>
