<svg width="32" height="31" viewBox="0 0 32 31" fill="none" xmlns="http://www.w3.org/2000/svg">
<path d="M10.7417 4.60205C9.644 5.94985 9.14286 7.69267 9.14286 9.18519C9.14286 9.81929 8.63118 10.3333 8 10.3333C3.85867 10.3333 2.28571 13.2362 2.28571 14.9259C2.28571 15.9073 2.53266 17.0334 3.28866 17.9013C4.0174 18.7381 5.37998 19.5185 8 19.5185H13.5449C13.3337 20.2536 13.2017 21.0223 13.1585 21.8148H8C4.90574 21.8148 2.83974 20.8731 1.56848 19.4135C0.324481 17.9852 0 16.2408 0 14.9259C0 12.2214 2.20673 8.57659 6.92215 8.09123C7.11849 6.41978 7.76727 4.62798 8.97262 3.14795C10.4756 1.30251 12.8003 0 16 0C17.9429 0 20.2081 0.644682 22.0094 2.12527C23.6334 3.46017 24.835 5.4404 25.0918 8.10279C26.6663 8.29225 28.1928 8.88709 29.4128 9.83358C30.929 11.0098 32 12.7605 32 14.9259C32 15.4576 31.9535 15.973 31.8586 16.4667C31.2428 15.5837 30.4931 14.8019 29.639 14.1511C29.4406 13.1537 28.8601 12.306 28.0158 11.6511C26.9452 10.8205 25.4812 10.3333 24 10.3333C23.3688 10.3333 22.8571 9.81929 22.8571 9.18519C22.8571 6.65891 21.8679 4.97594 20.562 3.90251C19.2204 2.79976 17.4856 2.2963 16 2.2963C13.4854 2.2963 11.8101 3.29008 10.7417 4.60205ZM32 22.3889C32 27.1447 28.1624 31 23.4286 31C18.6947 31 14.8571 27.1447 14.8571 22.3889C14.8571 17.6331 18.6947 13.7778 23.4286 13.7778C28.1624 13.7778 32 17.6331 32 22.3889ZM18.5368 23.8589L23.1082 28.4515C23.4429 28.7878 23.9856 28.7878 24.3204 28.4515L28.8918 23.8589C29.2265 23.5226 29.2265 22.9774 28.8918 22.6411C28.5571 22.3048 28.0144 22.3048 27.6796 22.6411L24.5714 25.7637V16.9352C24.5714 16.4596 24.1877 16.0741 23.7143 16.0741C23.2409 16.0741 22.8571 16.4596 22.8571 16.9352V25.7637L19.749 22.6411C19.4142 22.3048 18.8715 22.3048 18.5368 22.6411C18.202 22.9774 18.202 23.5226 18.5368 23.8589Z" fill="white"/>
</svg>
