<svg width="24" height="22" viewBox="0 0 24 22" fill="none" xmlns="http://www.w3.org/2000/svg">
<path d="M20.5082 0.00851797V0H7.36364C5.40554 0 3.81818 1.60059 3.81818 3.57501V14.85H1.90909C0.854729 14.85 0 15.7119 0 16.775V18.7825C0 20.6413 1.50203 22 3.27273 22H15.294V21.9912C15.3786 21.997 15.4639 22 15.5497 22C17.4703 22 19.1018 20.5096 19.1248 18.5763L19.125 18.535V7.15002L22.686 7.15002C23.4117 7.15002 24 6.55679 24 5.82501V3.28256C24 1.46965 22.5425 0 20.7446 0C20.6651 0 20.5863 0.00287176 20.5082 0.00851797ZM7.36364 1.65H17.9197C17.6457 2.13095 17.4891 2.6885 17.4892 3.28293L17.4886 18.535C17.4886 19.4977 16.6609 20.35 15.5497 20.35C14.4385 20.35 13.6108 19.4977 13.6108 18.535V16.225C13.6108 15.4656 13.0003 14.85 12.2472 14.85H5.45455V3.57501C5.45455 2.51186 6.30927 1.65 7.36364 1.65ZM1.90909 16.5H11.9744V18.535C11.9744 19.2067 12.1685 19.8262 12.5018 20.35H3.27273C2.33221 20.35 1.63636 19.6575 1.63636 18.7825V16.775C1.63636 16.6232 1.75847 16.5 1.90909 16.5ZM22.3636 3.28256V5.50001L19.1258 5.50001L19.1255 3.28274C19.1254 2.38104 19.8503 1.65 20.7446 1.65C21.6388 1.65 22.3636 2.38092 22.3636 3.28256Z" fill="white"/>
</svg>
