<svg width="32" height="37" viewBox="0 0 32 37" fill="none" xmlns="http://www.w3.org/2000/svg">
<path d="M7.18367 0C5.01962 0 3.26531 1.74373 3.26531 3.89474V18.1748C3.93877 17.2838 4.83755 16.5707 5.87755 16.1191V3.89474C5.87755 3.17774 6.46232 2.59649 7.18367 2.59649H18.9388V9.08772C18.9388 11.2387 20.6931 12.9825 22.8571 12.9825H29.3878V32.4561C29.3878 33.1731 28.803 33.7544 28.0816 33.7544H18.9388C18.9388 34.7003 18.6844 35.5871 18.2398 36.3509H28.0816C30.2457 36.3509 32 34.6071 32 32.4561V11.4615C32 10.4285 31.5872 9.43788 30.8523 8.70747L23.2397 1.14074C22.5049 0.410337 21.5082 0 20.469 0H7.18367ZM28.8467 10.386H22.8571C22.1358 10.386 21.551 9.80472 21.551 9.08772V3.13424L28.8467 10.386ZM3.91837 22.7193H3.26531C1.46193 22.7193 0 24.1724 0 25.9649V33.7544C0 35.5469 1.46193 37 3.26531 37H13.7143C15.5177 37 16.9796 35.5469 16.9796 33.7544V25.9649C16.9796 24.1724 15.5177 22.7193 13.7143 22.7193H13.0612V22.0702C13.0612 19.5607 11.0145 17.5263 8.4898 17.5263C5.96507 17.5263 3.91837 19.5607 3.91837 22.0702V22.7193ZM6.53061 22.0702C6.53061 20.9947 7.40777 20.1228 8.4898 20.1228C9.57182 20.1228 10.449 20.9947 10.449 22.0702V22.7193H6.53061V22.0702ZM11.102 29.8597C11.102 31.2937 9.9325 32.4561 8.4898 32.4561C7.04709 32.4561 5.87755 31.2937 5.87755 29.8597C5.87755 28.4256 7.04709 27.2632 8.4898 27.2632C9.9325 27.2632 11.102 28.4256 11.102 29.8597Z" fill="white"/>
</svg>
