<svg width="200" height="200" xmlns="http://www.w3.org/2000/svg" viewBox="0 0 24 24"><g fill="none"><path fill="url(#SVGE9DRbcVU)" d="m8.086 18.61l5.996-14.004a1 1 0 0 1 1.878.678l-.04.11l-5.996 14.004a1 1 0 0 1-1.878-.677zl5.996-14.005zm-5.793-7.317l4-4a1 1 0 0 1 1.497 1.32l-.083.094L4.414 12l3.293 3.293a1 1 0 0 1-1.32 1.497l-.094-.083l-4-4a1 1 0 0 1-.083-1.32zl4-4zm14-4.001a1 1 0 0 1 1.32-.083l.093.083l4.001 4a1 1 0 0 1 .083 1.321l-.083.095l-4.001 3.995a1 1 0 0 1-1.497-1.32l.084-.095l3.292-3.289l-3.293-3.293a1 1 0 0 1 0-1.414"/><defs><linearGradient id="SVGE9DRbcVU" x1="2.588" x2="20.693" y1="2.933" y2="22.309" gradientUnits="userSpaceOnUse"><stop stop-color="#cf83fc"/><stop offset="1" stop-color="#9f6ff6"/></linearGradient></defs></g></svg>
