<svg width="200" height="200" xmlns="http://www.w3.org/2000/svg" viewBox="0 0 32 32"><g fill="none"><path fill="url(#SVGVjUjtb3Q)" d="M26 27.011a3 3 0 0 0-.25-.011H5.25a.25.25 0 0 1-.25-.25V13.484l5.606-2.403a1 1 0 0 1 .841.025l5.447 2.723L24.4 8.2A1 1 0 0 1 26 9z"/><path fill="url(#SVGAP0ygehL)" fill-opacity=".3" d="M26 27.011a3 3 0 0 0-.25-.011H5.25a.25.25 0 0 1-.25-.25V13.484l5.606-2.403a1 1 0 0 1 .841.025l5.447 2.723L24.4 8.2A1 1 0 0 1 26 9z"/><path fill="url(#SVG4KmmBe7S)" fill-opacity=".3" d="M26 27.011a3 3 0 0 0-.25-.011H5.25a.25.25 0 0 1-.25-.25V13.484l5.606-2.403a1 1 0 0 1 .841.025l5.447 2.723L24.4 8.2A1 1 0 0 1 26 9z"/><path fill="url(#SVGnHKBJdSy)" fill-opacity=".3" d="M26 27.011a3 3 0 0 0-.25-.011H5.25a.25.25 0 0 1-.25-.25V13.484l5.606-2.403a1 1 0 0 1 .841.025l5.447 2.723L24.4 8.2A1 1 0 0 1 26 9z"/><path fill="url(#SVG3VKJSb3S)" d="M4.25 3c.69 0 1.25.56 1.25 1.25v20.5c0 .966.784 1.75 1.75 1.75h20.5a1.25 1.25 0 1 1 0 2.5H7.25A4.25 4.25 0 0 1 3 24.75V4.25C3 3.56 3.56 3 4.25 3"/><defs><linearGradient id="SVGVjUjtb3Q" x1="-2.269" x2="32.117" y1="10.376" y2="30.761" gradientUnits="userSpaceOnUse"><stop offset=".164" stop-color="#3BD5FF"/><stop offset=".537" stop-color="#9C6CFE"/><stop offset=".908" stop-color="#E656EB"/></linearGradient><linearGradient id="SVG4KmmBe7S" x1="15.5" x2="15.5" y1="25" y2="27.011" gradientUnits="userSpaceOnUse"><stop stop-color="#163697" stop-opacity="0"/><stop offset="1" stop-color="#163697"/></linearGradient><linearGradient id="SVGnHKBJdSy" x1="7" x2="5" y1="21.5" y2="21.466" gradientUnits="userSpaceOnUse"><stop stop-color="#163697" stop-opacity="0"/><stop offset="1" stop-color="#163697"/></linearGradient><linearGradient id="SVG3VKJSb3S" x1="26.563" x2="3.809" y1="4.625" y2="38.505" gradientUnits="userSpaceOnUse"><stop stop-color="#70777D"/><stop offset="1" stop-color="#B9C0C7"/></linearGradient><radialGradient id="SVGAP0ygehL" cx="0" cy="0" r="1" gradientTransform="matrix(-16.15373 14.25848 -14.39169 -16.30465 22.77 11.168)" gradientUnits="userSpaceOnUse"><stop offset=".636" stop-color="#0FAFFF" stop-opacity="0"/><stop offset="1" stop-color="#0067BF"/></radialGradient></defs></g></svg>