<svg width="24" height="24" viewBox="0 0 24 24" fill="none" xmlns="http://www.w3.org/2000/svg">
<path d="M11.9996 1.99902C17.5233 1.99902 22.0011 6.47687 22.0011 12.0006C22.0011 17.5243 17.5233 22.0021 11.9996 22.0021C6.47589 22.0021 1.99805 17.5243 1.99805 12.0006C1.99805 6.47687 6.47589 1.99902 11.9996 1.99902ZM14.9385 16.5003H9.06069C9.71273 18.9144 10.8461 20.5021 11.9996 20.5021C13.1531 20.5021 14.2865 18.9144 14.9385 16.5003ZM7.50791 16.5009L4.78542 16.5007C5.74376 18.0338 7.17721 19.2394 8.87959 19.9114C8.35731 19.0915 7.92632 18.0653 7.60932 16.8959L7.50791 16.5009ZM19.2138 16.5007L16.4913 16.5009C16.1675 17.8346 15.6999 19.0004 15.1185 19.9114C16.7155 19.2814 18.0752 18.1824 19.0286 16.7843L19.2138 16.5007ZM7.09302 9.99992H3.73542L3.73066 10.0171C3.57858 10.6535 3.49805 11.3176 3.49805 12.0006C3.49805 13.0567 3.69064 14.0679 4.04261 15.0009L7.21577 15.0005C7.07347 14.0514 6.99805 13.0432 6.99805 12.0006C6.99805 11.3166 7.03051 10.6474 7.09302 9.99992ZM15.3965 9.99999H8.60267C8.53465 10.6403 8.49805 11.31 8.49805 12.0006C8.49805 13.0601 8.58419 14.0704 8.73778 15.0007H15.2614C15.415 14.0704 15.5011 13.0601 15.5011 12.0006C15.5011 11.31 15.4645 10.6403 15.3965 9.99999ZM20.2642 9.99909L16.9062 9.99994C16.9687 10.6474 17.0011 11.3166 17.0011 12.0006C17.0011 13.0432 16.9257 14.0514 16.7834 15.0005L19.9566 15.0009C20.3086 14.0679 20.5011 13.0567 20.5011 12.0006C20.5011 11.3112 20.4191 10.6409 20.2642 9.99909ZM8.88065 4.08973L8.85774 4.09844C6.81043 4.91315 5.15441 6.50046 4.24975 8.50033L7.29787 8.50069C7.61122 6.7479 8.15807 5.22198 8.88065 4.08973ZM11.9996 3.49902L11.8839 3.50432C10.6185 3.62008 9.39603 5.62205 8.82831 8.50027H15.1709C14.6048 5.63011 13.3875 3.63131 12.1259 3.50534L11.9996 3.49902ZM15.1196 4.08979L15.2264 4.26388C15.8957 5.37635 16.4038 6.83623 16.7013 8.50069L19.7494 8.50033C18.8848 6.58892 17.3338 5.05439 15.4108 4.21106L15.1196 4.08979Z" fill="#fff"/>
</svg>
