<svg xmlns="http://www.w3.org/2000/svg" width="200" height="200" viewBox="0 0 24 24"><g fill="none"><path fill="url(#fluentColorGlobe241)" d="M12 22c5.523 0 10-4.477 10-10S17.523 2 12 2S2 6.477 2 12s4.477 10 10 10"/><path fill="url(#fluentColorGlobe240)" fill-rule="evenodd" d="M9.115 2.422a9.6 9.6 0 0 0-.85 1.704c-.48 1.23-.838 2.723-1.049 4.374H2.63q-.271.725-.43 1.5h4.87a29 29 0 0 0 .088 5h-4.7q.246.78.61 1.5h4.297c.215 1.255.52 2.397.9 3.374c.246.63.53 1.205.85 1.704A10 10 0 0 0 12 22a10 10 0 0 0 2.885-.422a9.6 9.6 0 0 0 .85-1.704c.38-.977.685-2.119.9-3.374h4.298q.364-.72.61-1.5h-4.7a29 29 0 0 0 .088-5h4.87a10 10 0 0 0-.43-1.5h-4.587c-.21-1.651-.57-3.144-1.05-4.374a9.6 9.6 0 0 0-.849-1.704A10 10 0 0 0 12 2a10 10 0 0 0-2.885.422M8.73 8.5c.2-1.47.522-2.774.934-3.829c.36-.92.77-1.612 1.194-2.062C11.278 2.163 11.663 2 12 2s.723.163 1.143.609c.423.45.835 1.142 1.194 2.062c.412 1.055.734 2.36.934 3.829zM12 22c.338 0 .723-.163 1.143-.609c.423-.45.835-1.142 1.194-2.062c.316-.81.58-1.765.775-2.829H8.888c.196 1.064.46 2.02.775 2.829c.36.92.77 1.612 1.194 2.062c.42.446.805.609 1.143.609M8.5 12c0 1.048.058 2.055.166 3h6.668a27 27 0 0 0 .094-5H8.573a27 27 0 0 0-.073 2" clip-rule="evenodd"/><defs><radialGradient id="fluentColorGlobe240" cx="0" cy="0" r="1" gradientTransform="rotate(-135.338 12.654 4.738)scale(16.0089 16.0078)" gradientUnits="userSpaceOnUse"><stop stop-color="#25A2F0"/><stop offset=".974" stop-color="#3BD5FF"/></radialGradient><linearGradient id="fluentColorGlobe241" x1="6.444" x2="20.889" y1="5.333" y2="18.667" gradientUnits="userSpaceOnUse"><stop stop-color="#29C3FF"/><stop offset="1" stop-color="#2052CB"/></linearGradient></defs></g></svg>