<svg xmlns="http://www.w3.org/2000/svg" width="200" height="200" viewBox="0 0 48 48"><g fill="none"><path fill="url(#fluentColorShieldCheckmark480)" d="M24.865 4.348a1.25 1.25 0 0 0-1.73 0c-2.759 2.643-6.685 4.077-10.037 4.84c-1.66.376-3.139.58-4.202.69A29 29 0 0 1 7.242 10H7.22A1.25 1.25 0 0 0 6 11.25v9.5c0 4.837 1.243 9.658 4.098 13.775c2.861 4.126 7.29 7.469 13.529 9.418c.243.076.503.076.746 0C36.94 40.016 42 30.497 42 21v-9.75A1.25 1.25 0 0 0 40.78 10h-.022l-.08-.003l-.328-.017a29 29 0 0 1-1.246-.102a36 36 0 0 1-4.202-.69c-3.353-.763-7.279-2.197-10.037-4.84"/><path fill="url(#fluentColorShieldCheckmark481)" fill-opacity=".5" d="M24.865 4.348a1.25 1.25 0 0 0-1.73 0c-2.759 2.643-6.685 4.077-10.037 4.84c-1.66.376-3.139.58-4.202.69A29 29 0 0 1 7.242 10H7.22A1.25 1.25 0 0 0 6 11.25v9.5c0 4.837 1.243 9.658 4.098 13.775c2.861 4.126 7.29 7.469 13.529 9.418c.243.076.503.076.746 0C36.94 40.016 42 30.497 42 21v-9.75A1.25 1.25 0 0 0 40.78 10h-.022l-.08-.003l-.328-.017a29 29 0 0 1-1.246-.102a36 36 0 0 1-4.202-.69c-3.353-.763-7.279-2.197-10.037-4.84"/><path fill="#444" d="M46 35c0-6.075-4.925-11-11-11s-11 4.925-11 11s4.925 11 11 11s11-4.925 11-11"/><path fill="url(#fluentColorShieldCheckmark482)" d="M46 35c0-6.075-4.925-11-11-11s-11 4.925-11 11s4.925 11 11 11s11-4.925 11-11"/><path fill="#D9D9D9" d="M41.707 30.293a1 1 0 0 1 0 1.414l-8 8a1 1 0 0 1-1.414 0l-4-4a1 1 0 0 1 1.414-1.414L33 37.586l7.293-7.293a1 1 0 0 1 1.414 0"/><path fill="url(#fluentColorShieldCheckmark483)" d="M41.707 30.293a1 1 0 0 1 0 1.414l-8 8a1 1 0 0 1-1.414 0l-4-4a1 1 0 0 1 1.414-1.414L33 37.586l7.293-7.293a1 1 0 0 1 1.414 0"/><defs><radialGradient id="fluentColorShieldCheckmark480" cx="0" cy="0" r="1" gradientTransform="matrix(55.2861 77.49968 -68.46098 48.83815 -8.143 -18.5)" gradientUnits="userSpaceOnUse"><stop offset=".338" stop-color="#0FAFFF"/><stop offset=".529" stop-color="#367AF2"/><stop offset=".682" stop-color="#5750E2"/><stop offset=".861" stop-color="#CC23D1"/></radialGradient><radialGradient id="fluentColorShieldCheckmark481" cx="0" cy="0" r="1" gradientTransform="matrix(0 14.75 -15.1714 0 35.571 37.75)" gradientUnits="userSpaceOnUse"><stop offset=".5" stop-color="#1E1868"/><stop offset="1" stop-color="#1E1868" stop-opacity="0"/></radialGradient><linearGradient id="fluentColorShieldCheckmark482" x1="24.786" x2="39.968" y1="28.125" y2="43.899" gradientUnits="userSpaceOnUse"><stop stop-color="#52D17C"/><stop offset="1" stop-color="#22918B"/></linearGradient><linearGradient id="fluentColorShieldCheckmark483" x1="30.625" x2="32.899" y1="31.02" y2="42.261" gradientUnits="userSpaceOnUse"><stop stop-color="#fff"/><stop offset="1" stop-color="#E3FFD9"/></linearGradient></defs></g></svg>