<svg width="24" height="24" viewBox="0 0 24 24" fill="none" xmlns="http://www.w3.org/2000/svg">
<path d="M12 22C17.5229 22 22 17.5228 22 12C22 6.47715 17.5229 2 12 2C6.47715 2 2 6.47715 2 12C2 17.5228 6.47715 22 12 22Z" fill="url(#paint0_linear_16947_155)"/>
<path d="M12 22C17.5229 22 22 17.5228 22 12C22 6.47715 17.5229 2 12 2C6.47715 2 2 6.47715 2 12C2 17.5228 6.47715 22 12 22Z" fill="url(#paint1_radial_16947_155)" fill-opacity="0.7"/>
<path d="M12 22C17.5229 22 22 17.5228 22 12C22 6.47715 17.5229 2 12 2C6.47715 2 2 6.47715 2 12C2 17.5228 6.47715 22 12 22Z" fill="url(#paint2_radial_16947_155)" fill-opacity="0.2"/>
<path fill-rule="evenodd" clip-rule="evenodd" d="M9.11518 2.42239C8.79418 2.9207 8.51119 3.49638 8.26555 4.12602C7.78554 5.35643 7.42655 6.84886 7.21579 8.5H2.62958C2.44895 8.98338 2.30465 9.48449 2.20001 10H7.06867C7.02335 10.6505 6.99998 11.319 6.99998 12C6.99998 13.0354 7.05401 14.0418 7.15704 15H2.45778C2.62096 15.5196 2.8254 16.0208 3.06727 16.5H7.36479C7.5797 17.7553 7.88449 18.8972 8.26555 19.874C8.51119 20.5036 8.79418 21.0793 9.11518 21.5776C10.0286 21.8524 10.997 22 12 22C13.0029 22 13.9714 21.8524 14.8848 21.5776C15.2058 21.0793 15.4888 20.5036 15.7344 19.874C16.1155 18.8972 16.4202 17.7553 16.6352 16.5H20.9327C21.1745 16.0208 21.379 15.5196 21.5422 15H16.8429C16.9459 14.0418 17 13.0354 17 12C17 11.319 16.9766 10.6505 16.9313 10H21.7999C21.6953 9.48449 21.551 8.98338 21.3704 8.5H16.7842C16.5734 6.84886 16.2144 5.35643 15.7344 4.12602C15.4888 3.49638 15.2058 2.9207 14.8848 2.42239C13.9714 2.14765 13.0029 2 12 2C10.997 2 10.0286 2.14765 9.11518 2.42239ZM8.72875 8.5C8.9287 7.03063 9.2513 5.72645 9.66297 4.67118C10.0219 3.75104 10.4337 3.05889 10.8574 2.60897C11.2774 2.16296 11.6621 2 12 2C12.3379 2 12.7226 2.16296 13.1426 2.60897C13.5663 3.05889 13.978 3.75104 14.337 4.67118C14.7487 5.72645 15.0713 7.03063 15.2712 8.5H8.72875ZM12 22C12.3379 22 12.7226 21.837 13.1426 21.391C13.5663 20.9411 13.978 20.249 14.337 19.3288C14.6526 18.5197 14.9159 17.5641 15.1117 16.5H8.88823C9.08401 17.5641 9.3473 18.5197 9.66297 19.3288C10.0219 20.249 10.4337 20.9411 10.8574 21.391C11.2774 21.837 11.6621 22 12 22ZM8.49998 12C8.49998 13.0476 8.55816 14.0545 8.66621 15H15.3337C15.4418 14.0545 15.5 13.0476 15.5 12C15.5 11.3139 15.475 10.6453 15.4275 10H8.5725C8.52493 10.6453 8.49998 11.3139 8.49998 12Z" fill="url(#paint3_radial_16947_155)"/>
<path d="M22.5003 13.0105C20.5935 12.8379 19.0662 11.7237 18.3851 11.1395C18.1682 10.9535 17.8321 10.9535 17.6152 11.1395C16.9339 11.7236 15.4061 12.8378 13.4995 13.0105C13.2245 13.0354 13 13.2571 13 13.5333L13.0002 17.0332C13.0002 21.2557 17.0937 22.7492 17.8729 22.9953C17.9562 23.0216 18.0441 23.0216 18.1274 22.9953C18.9066 22.7492 22.9998 21.2557 22.9998 17.0332L22.9998 13.5332C22.9999 13.2571 22.7753 13.0354 22.5003 13.0105Z" fill="url(#paint4_linear_16947_155)"/>
<defs>
<linearGradient id="paint0_linear_16947_155" x1="6.44444" y1="5.33333" x2="20.8889" y2="18.6667" gradientUnits="userSpaceOnUse">
<stop stop-color="#29C3FF"/>
<stop offset="1" stop-color="#2052CB"/>
</linearGradient>
<radialGradient id="paint1_radial_16947_155" cx="0" cy="0" r="1" gradientUnits="userSpaceOnUse" gradientTransform="translate(18.1719 17.1563) rotate(180) scale(8.40145)">
<stop stop-color="#003580"/>
<stop offset="1" stop-color="#003580" stop-opacity="0"/>
</radialGradient>
<radialGradient id="paint2_radial_16947_155" cx="0" cy="0" r="1" gradientUnits="userSpaceOnUse" gradientTransform="translate(18.5625 17) rotate(37.2782) scale(13.1566 14.272)">
<stop offset="0.411967" stop-color="#1B44B1"/>
<stop offset="1" stop-color="#1B44B1" stop-opacity="0"/>
</radialGradient>
<radialGradient id="paint3_radial_16947_155" cx="0" cy="0" r="1" gradientTransform="matrix(10.7512 10.631 -11.4844 11.356 18.3243 17.003)" gradientUnits="userSpaceOnUse">
<stop offset="0.445" stop-color="#3BD5FF" stop-opacity="0"/>
<stop offset="0.815" stop-color="#3BD5FF"/>
</radialGradient>
<linearGradient id="paint4_linear_16947_155" x1="14.875" y1="11" x2="23.9366" y2="21.8209" gradientUnits="userSpaceOnUse">
<stop stop-color="#62BE55"/>
<stop offset="1" stop-color="#1E794A"/>
</linearGradient>
</defs>
</svg>
