<svg xmlns:svg="http://www.w3.org/2000/svg" xmlns="http://www.w3.org/2000/svg" version="1.1" viewBox="0 0 47.5 47.5" style="enable-background:new 0 0 47.5 47.5;" id="svg2" xml:space="preserve"><defs id="defs6"><clipPath id="clipPath18"><path d="M 0,38 38,38 38,0 0,0 0,38 z" id="path20"/></clipPath><path id="cn-a" fill="#ff0" d="M-.6.8 0-1 .6.8-1-.3h2z"/></defs><g transform="matrix(1.25,0,0,-1.25,0,47.5)" id="g12"><g id="g14"><g clip-path="url(#clipPath18)" id="g16"><g transform="translate(37,10)" id="g22"><path d="m 0,0 c 0,-2.209 -1.791,-4 -4,-4 l -28,0 c -2.209,0 -4,1.791 -4,4 l 0,18 c 0,2.209 1.791,4 4,4 l 28,0 c 2.209,0 4,-1.791 4,-4 L 0,0 z" id="path24" style="fill:#ee1c25;fill-opacity:1;fill-rule:nonzero;stroke:none"/></g><use href="#cn-a" width="30" height="20" transform="matrix(4.05 0 0 -3.9 7.75 25.5)"/><use href="#cn-a" width="30" height="20" transform="matrix(-0.6939 1.1151 1.158 0.668 14.5169 29.4)"/><use href="#cn-a" width="30" height="20" transform="matrix(-0.1904 1.287 1.3365 0.1834 17.2 26.8108)"/><use href="#cn-a" width="30" height="20" transform="matrix(0.3712 1.2499 1.298 -0.3575 17.2 22.9)"/><use href="#cn-a" width="30" height="20" transform="matrix(0.8437 1.0152 1.0539 -0.8125 14.5 20.3)"/></g></g></g></svg>
