<svg width="32" height="32" viewBox="0 0 32 32" fill="none" xmlns="http://www.w3.org/2000/svg">
<path d="M20.8447 22.461L30.049 31.6653C30.4953 32.1116 31.219 32.1116 31.6653 31.6653C32.1116 31.219 32.1116 30.4953 31.6653 30.049L1.95098 0.334735C1.50467 -0.111578 0.781049 -0.111578 0.334736 0.334735C-0.111578 0.781049 -0.111578 1.50467 0.334735 1.95098L7.71711 9.33335C6.63125 10.099 5.74309 10.972 5.02576 11.8467C4.01013 13.0852 3.34066 14.3198 2.92414 15.2452C2.71532 15.7091 2.56843 16.099 2.47237 16.3778C2.42431 16.5174 2.36464 16.7096 2.36464 16.7096L2.32426 16.85C2.32426 16.85 2.15081 17.9864 3.13604 18.2476C3.7458 18.4092 4.37144 18.0453 4.53363 17.4358L4.53587 17.4279L4.55266 17.3707C4.56892 17.3169 4.59545 17.2326 4.63349 17.1222C4.70965 16.9011 4.83143 16.5766 5.00843 16.1834C5.36355 15.3945 5.93434 14.3434 6.79316 13.2961C7.45972 12.4833 8.30201 11.6684 9.36218 10.9784L12.9681 14.5844C11.3573 15.5949 10.2863 17.3867 10.2863 19.4286C10.2863 22.5845 12.8446 25.1429 16.0006 25.1429C18.0425 25.1429 19.8342 24.0719 20.8447 22.461ZM19.1559 20.7721C18.6333 21.9979 17.4173 22.8571 16.0006 22.8571C14.107 22.8571 12.572 21.3221 12.572 19.4286C12.572 18.0119 13.4312 16.7959 14.657 16.2733L19.1559 20.7721ZM12.1591 7.31092L14.112 9.26379C14.7055 9.18519 15.3343 9.14286 16.0004 9.14286C20.6731 9.14286 23.5102 11.2263 25.2076 13.2961C26.0664 14.3434 26.6372 15.3945 26.9923 16.1834C27.1693 16.5766 27.2911 16.9011 27.3673 17.1222C27.4053 17.2326 27.4318 17.3169 27.4481 17.3707L27.4649 17.4279L27.4671 17.4358L27.4679 17.4386C27.6308 18.047 28.2555 18.4091 28.8647 18.2476C29.4748 18.0858 29.8383 17.4601 29.6765 16.85L29.6758 16.8473L29.6748 16.8438L29.6723 16.8343L29.6642 16.8054C29.6575 16.7818 29.6482 16.7497 29.6361 16.7096C29.6119 16.6295 29.5764 16.5174 29.5284 16.3778C29.4323 16.099 29.2854 15.7091 29.0766 15.2452C28.6601 14.3198 27.9906 13.0852 26.975 11.8467C24.9235 9.34515 21.4748 6.85714 16.0004 6.85714C14.5889 6.85714 13.3121 7.02254 12.1591 7.31092Z" fill="white"/>
</svg>
