<svg xmlns="http://www.w3.org/2000/svg" xmlns:xlink="http://www.w3.org/1999/xlink" width="500" zoomAndPan="magnify" viewBox="0 0 375 374.999991" height="500" preserveAspectRatio="xMidYMid meet" version="1.0"><defs><clipPath id="df6b909746"><path d="M 19 90.96875 L 356 90.96875 L 356 283.71875 L 19 283.71875 Z M 19 90.96875 " clip-rule="nonzero"/></clipPath></defs><g clip-path="url(#df6b909746)"><path fill="#ffffff" d="M 19.949219 99.996094 L 128.234375 281.125 C 129.3125 282.925781 131.257812 284.027344 133.355469 284.027344 C 135.457031 284.027344 137.398438 282.925781 138.476562 281.125 L 187.5 199.121094 L 236.523438 281.125 C 237.601562 282.925781 239.546875 284.027344 241.644531 284.027344 C 243.742188 284.027344 245.6875 282.925781 246.765625 281.125 L 355.050781 99.996094 C 356.15625 98.148438 356.179688 95.859375 355.117188 93.988281 C 354.0625 92.121094 352.078125 90.964844 349.933594 90.964844 L 295.171875 90.964844 C 293.050781 90.964844 291.09375 92.089844 290.023438 93.914062 L 247.089844 167.105469 C 245.425781 169.949219 246.378906 173.601562 249.21875 175.269531 C 252.058594 176.9375 255.714844 175.984375 257.382812 173.144531 L 298.585938 102.902344 L 339.414062 102.902344 L 241.644531 266.4375 L 194.449219 187.496094 L 246.765625 99.996094 C 247.867188 98.148438 247.890625 95.859375 246.832031 93.988281 C 245.773438 92.121094 243.792969 90.964844 241.644531 90.964844 L 186.882812 90.964844 C 184.765625 90.964844 182.804688 92.089844 181.738281 93.914062 L 138.804688 167.105469 C 137.136719 169.949219 138.089844 173.601562 140.929688 175.269531 C 143.773438 176.9375 147.429688 175.984375 149.09375 173.144531 L 190.300781 102.902344 L 231.128906 102.902344 L 182.394531 184.40625 C 182.382812 184.433594 182.363281 184.460938 182.347656 184.484375 L 133.355469 266.4375 L 35.585938 102.902344 L 123.320312 102.902344 L 111.324219 124.957031 C 109.75 127.847656 110.820312 131.476562 113.714844 133.046875 C 116.605469 134.621094 120.230469 133.550781 121.804688 130.660156 L 138.597656 99.785156 C 139.601562 97.9375 139.558594 95.695312 138.484375 93.886719 C 137.410156 92.078125 135.460938 90.964844 133.355469 90.964844 L 25.070312 90.964844 C 22.921875 90.964844 20.941406 92.121094 19.878906 93.988281 C 18.820312 95.859375 18.847656 98.148438 19.949219 99.996094 " fill-opacity="1" fill-rule="nonzero"/></g></svg>